<?xml version="1.0" encoding="UTF-8" standalone="no"?>
<!-- Created with Inkscape (http://www.inkscape.org/) -->

<svg
   width="194.56427mm"
   height="129.9216mm"
   viewBox="0 0 194.56427 129.9216"
   version="1.1"
   id="svg1"
   xml:space="preserve"
   inkscape:version="1.4.2 (f4327f4, 2025-05-13)"
   sodipodi:docname="Minawan Drawing.svg"
   inkscape:export-filename="Minawan Drawing large.png"
   inkscape:export-xdpi="313.31549"
   inkscape:export-ydpi="313.31549"
   xmlns:inkscape="http://www.inkscape.org/namespaces/inkscape"
   xmlns:sodipodi="http://sodipodi.sourceforge.net/DTD/sodipodi-0.dtd"
   xmlns="http://www.w3.org/2000/svg"
   xmlns:svg="http://www.w3.org/2000/svg"><sodipodi:namedview
     id="namedview1"
     pagecolor="#ffffff"
     bordercolor="#000000"
     borderopacity="0.25"
     inkscape:showpageshadow="2"
     inkscape:pageopacity="0.0"
     inkscape:pagecheckerboard="0"
     inkscape:deskcolor="#d1d1d1"
     inkscape:document-units="mm"
     inkscape:zoom="1.0396254"
     inkscape:cx="385.71585"
     inkscape:cy="160.15384"
     inkscape:window-width="2560"
     inkscape:window-height="1369"
     inkscape:window-x="-8"
     inkscape:window-y="-8"
     inkscape:window-maximized="1"
     inkscape:current-layer="layer1" /><defs
     id="defs1" /><g
     inkscape:label="Layer 1"
     inkscape:groupmode="layer"
     id="layer1"
     transform="translate(-8.1439587,-52.808482)"><path
       style="fill:#000000;stroke-width:1.22363"
       d="m 44.309677,180.65651 c -0.06282,-0.0628 -0.102469,-0.78468 -0.102469,-1.86541 v -1.76295 l -1.810192,-0.0271 -1.810192,-0.0271 0.0074,-18.51752 0.0074,-18.51754 -1.842345,-0.0269 -1.842345,-0.0269 -0.02562,-5.5264 -0.02564,-5.52639 -1.809361,-0.0271 -1.809359,-0.0271 -0.08649,-3.69281 -0.08649,-3.69282 -3.63308,-0.0259 -3.63308,-0.026 -0.04959,-1.83461 -0.04959,-1.83461 -1.798327,-0.0271 -1.798327,-0.0271 -0.07332,-3.66485 -0.07332,-3.66483 -1.798327,-0.0271 -1.798329,-0.0271 -0.02563,-5.52644 -0.02564,-5.52644 -1.858953,-0.02687 -1.858956,-0.02687 -0.0035,-7.437602 c -0.0019,-4.090693 -0.0131,-8.252038 -0.0248,-9.247438 l -0.02127,-1.80982 h -1.77954 c -1.177406,0 -1.802152,-0.03657 -1.846365,-0.108108 -0.03676,-0.05945 -0.03391,-1.731932 0.0063,-3.716615 l 0.07316,-3.608515 1.798004,-0.02698 1.798004,-0.02698 -0.03448,-3.597817 c -0.02614,-2.728067 -0.0052,-3.633058 0.08653,-3.743597 0.09821,-0.118302 0.454837,-0.145783 1.892026,-0.145783 h 1.771012 l 0.02703,-1.80982 0.02703,-1.809819 3.692541,-0.026 3.692542,-0.026 0.02703,-1.808614 0.02703,-1.808614 2.231743,-0.05948 c 1.227458,-0.03271 5.389658,-0.04681 9.249334,-0.03133 l 7.017592,0.02815 v -1.81325 -1.813285 l 3.149238,-0.05558 c 4.788481,-0.08452 67.108044,-0.02966 67.249854,0.05918 0.0916,0.0574 0.124,0.537372 0.124,1.838432 v 1.760754 l 13.56404,-0.02119 c 7.46022,-0.01163 14.95886,0.0035 16.66367,0.03378 l 3.09965,0.05498 v 1.817012 1.817014 l 1.81019,0.02703 1.8102,0.02703 0.0495,1.834613 0.0496,1.834611 1.85979,0.02698 1.85979,0.02698 0.0152,1.9068 c 0.0421,5.307659 0.0341,19.742559 -0.0122,21.740434 l -0.0528,2.280877 -1.83499,0.04956 -1.83498,0.04956 v 3.669225 c 0,2.018076 -0.011,4.505951 -0.0248,5.528625 l -0.0248,1.8594 h -1.81989 -1.81986 l 0.01,5.52862 0.01,5.52863 1.80796,0.0271 1.80796,0.0271 0.0271,1.8076 0.0271,1.80758 3.59948,-0.0336 c 2.71616,-0.0255 3.63503,-0.003 3.74436,0.0865 0.11711,0.0972 0.14489,0.45741 0.14489,1.87718 v 1.75692 l 2.72769,0.0647 c 1.50023,0.0355 3.95515,0.0355 5.45537,0 l 2.72769,-0.0647 v -1.75692 c 0,-1.43254 0.0272,-1.77951 0.14724,-1.87911 0.11429,-0.0948 0.95689,-0.10586 3.76916,-0.0488 l 3.62194,0.0733 v -1.84747 -1.84745 h 1.8328 1.83279 l 0.0271,-1.85942 0.0271,-1.8594 1.85979,-0.0269 1.85977,-0.0271 v -1.83243 -1.83243 h 1.835 1.83499 v -1.81867 -1.81867 l 2.77728,-0.0657 c 1.5275,-0.0361 4.02007,-0.0364 5.53903,-3.8e-4 l 2.76174,0.0653 0.0662,2.72227 c 0.0364,1.49724 0.0362,3.98927 -3.8e-4,5.53783 l -0.0665,2.81559 h -1.83015 -1.83015 l 0.0359,3.69401 0.0359,3.69401 -1.83498,0.0496 -1.835,0.0496 -0.026,3.64218 -0.026,3.64219 1.8114,0.0271 1.81142,0.0271 0.0271,1.8594 0.0271,1.85941 h -1.83718 -1.83718 v 1.82205 1.82208 l -3.66778,0.0733 -3.66778,0.0733 -0.0271,1.79865 -0.0271,1.79865 -3.76029,0.026 -3.76029,0.0259 0.0649,2.73875 c 0.0358,1.50632 0.0356,4.00482 -5e-5,5.55222 l -0.0649,2.81345 h -1.81866 -1.81864 l -0.0253,12.96625 -0.0253,12.96623 -1.85979,0.0271 -1.85979,0.0271 v 1.81647 1.81648 l -2.77727,0.064 c -1.52751,0.0352 -4.02705,0.0352 -5.55456,0 l -2.77729,-0.064 v -1.81643 -1.81642 l -1.81019,-0.0271 -1.81019,-0.0271 -0.0272,-1.78246 c -0.0149,-0.98035 -0.0672,-1.8225 -0.11625,-1.87146 -0.052,-0.052 -1.57591,-0.0584 -3.6654,-0.0155 l -3.57638,0.0734 -0.0271,1.79798 -0.0271,1.79797 -1.8576,0.0269 -1.85762,0.0271 -0.0269,1.85722 -0.0271,1.85723 h -5.55456 -5.55457 l -0.0269,-1.85723 -0.0269,-1.85722 -1.8576,-0.0271 -1.85761,-0.0269 -0.0271,-1.79528 -0.0269,-1.79526 -3.09746,-0.0522 c -2.69044,-0.0454 -23.01215,-0.0408 -28.264335,0.006 l -1.857546,0.0166 -0.02704,1.80982 -0.02704,1.80982 -1.810202,0.0271 -1.810187,0.0271 v 1.77692 c 0,1.31266 -0.03239,1.79791 -0.123986,1.85717 -0.183691,0.11881 -10.908395,0.12332 -11.059526,0.005 -0.09092,-0.0715 -0.123986,-0.56958 -0.123986,-1.86805 v -1.77064 l -1.810193,-0.0271 -1.810191,-0.0271 -0.02698,-1.79554 -0.02698,-1.79552 -3.147055,-0.0473 c -3.115367,-0.0469 -9.892442,-0.049 -13.388275,-0.005 l -1.810192,0.0231 v 1.67775 c 0,0.92275 -0.02709,1.74833 -0.0602,1.83461 -0.05188,0.13517 -0.312491,0.15685 -1.884583,0.15685 h -1.825069 v 1.83517 c 0,1.00903 -0.03348,1.84146 -0.07439,1.84985 -0.04092,0.009 -2.538991,0.0232 -5.551279,0.0331 -3.659288,0.0122 -5.510893,-0.0162 -5.579356,-0.0847 z m 11.128446,-83.438422 0.02698,-1.8594 1.859785,-0.02708 1.859787,-0.02687 v -1.832441 -1.832423 h -1.884584 -1.884583 v 1.834613 1.834618 h -1.765556 c -1.240959,0 -1.800924,0.03532 -1.884583,0.11906 -0.128417,0.128395 -0.17758,3.45862 -0.0529,3.583278 0.03636,0.03629 0.883446,0.06604 1.882395,0.06604 h 1.816268 z m 44.413881,0.03532 c 0,-1.571763 0.02162,-1.832331 0.156886,-1.884202 0.0863,-0.03318 0.95769,-0.06016 1.93641,-0.06016 h 1.77952 l -0.0271,-1.809821 -0.0271,-1.809812 h -1.88458 -1.884581 l -0.02708,1.809812 -0.02708,1.809821 H 98.17145 c -0.921731,0 -1.746468,0.02708 -1.832758,0.06016 -0.135199,0.05191 -0.156894,0.312439 -0.156894,1.884202 v 1.824002 h 1.83498 1.834995 z M 233.42806,147.30835 c -0.0376,-0.0376 -0.0683,-0.86305 -0.0683,-1.83449 v -1.76626 l -1.81018,-0.0271 -1.8102,-0.0271 -0.0254,-9.24743 -0.0254,-9.24744 h -1.76504 c -1.24056,0 -1.80041,-0.0353 -1.88407,-0.11905 -0.0837,-0.0837 -0.11906,-0.643 -0.11906,-1.88197 v -1.76296 l -1.81019,-0.0271 -1.81019,-0.0271 v -5.55341 -5.55343 l 1.81019,-0.0271 1.81019,-0.0271 v -1.76296 c 0,-1.23897 0.0353,-1.79833 0.11906,-1.88197 0.0837,-0.0836 0.64313,-0.11905 1.88235,-0.11905 h 1.76331 l 0.0271,-1.80983 0.0271,-1.80981 12.59695,-0.005 c 6.92832,-0.002 13.60122,0.0198 14.82869,0.0496 l 2.23174,0.0541 0.0271,1.80983 0.0271,1.80981 h 1.83275 1.83275 v 1.83237 1.83237 l 1.81018,0.0271 1.81021,0.0271 0.0711,2.23129 c 0.0391,1.22721 0.0443,3.70879 0.011,5.51462 -0.0458,2.5256 -0.0316,3.30057 0.0613,3.35794 0.0665,0.041 1.72382,0.0418 3.68317,10e-4 l 3.56244,-0.0732 v -1.75264 c 0,-1.23095 0.0354,-1.78807 0.11906,-1.87166 0.12557,-0.12555 3.28373,-0.17724 3.59243,-0.0589 0.1352,0.0519 0.1569,0.31243 0.1569,1.88419 v 1.824 h 1.82437 c 1.57211,0 1.83271,0.0216 1.88459,0.15688 0.11845,0.30862 0.0668,3.46613 -0.0589,3.59168 -0.0837,0.0837 -0.64313,0.11906 -1.88235,0.11906 h -1.76332 l -0.0271,1.80982 -0.0271,1.80983 -1.79867,0.0269 -1.79868,0.0271 -0.073,3.60102 c -0.0401,1.98055 -0.0408,3.70263 -0.001,3.82682 0.0394,0.1242 0.039,1.82736 -10e-4,3.78482 l -0.0729,3.55903 h -1.82184 -1.82184 v 1.83459 1.83461 h -1.88458 -1.88458 v -1.83461 -1.83459 h -1.83499 -1.835 v 1.83459 1.83461 h -1.88457 -1.88458 v -1.81862 -1.81865 l -5.52977,0.009 -5.52977,0.009 -0.0271,1.80981 -0.0271,1.80982 h -1.83273 -1.83276 v -1.83461 -1.8346 h -0.97578 c -0.53666,0 -2.18718,0.0294 -3.66779,0.0654 l -2.69204,0.0655 -0.0269,1.79395 -0.027,1.79392 -1.84114,0.0269 c -1.01261,0.0148 -1.87182,-0.003 -1.90937,-0.0413 z"
       id="path11" /></g></svg>
